<?xml version="1.0" encoding="UTF-8" standalone="no"?><!DOCTYPE svg PUBLIC "-//W3C//DTD SVG 1.1//EN" "http://www.w3.org/Graphics/SVG/1.1/DTD/svg11.dtd"><svg width="100%" height="100%" viewBox="0 0 600 600" version="1.1" xmlns="http://www.w3.org/2000/svg" xmlns:xlink="http://www.w3.org/1999/xlink" xml:space="preserve" xmlns:serif="http://www.serif.com/" style="fill-rule:evenodd;clip-rule:evenodd;stroke-linejoin:round;stroke-miterlimit:2;"><rect x="0" y="0" width="600" height="600" style="fill:none;"/><g><path d="M278.019,20.505c13.824,-6.74 29.982,-6.74 43.807,-0c71.904,35.31 142.676,76.17 209.207,120.786c12.749,8.603 20.828,22.596 21.904,37.938c5.373,79.926 5.373,161.647 -0,241.572c-1.076,15.342 -9.155,29.335 -21.904,37.938c-66.531,44.616 -137.303,85.476 -209.207,120.786c-13.825,6.74 -29.983,6.74 -43.807,0c-71.904,-35.31 -142.677,-76.17 -209.208,-120.786c-12.749,-8.603 -20.828,-22.596 -21.904,-37.938c-5.372,-79.925 -5.372,-161.646 0,-241.572c1.076,-15.342 9.155,-29.335 21.904,-37.938c66.531,-44.616 137.304,-85.476 209.208,-120.786Z" style="fill:#0e2727;"/><clipPath id="_clip1"><path d="M278.019,20.505c13.824,-6.74 29.982,-6.74 43.807,-0c71.904,35.31 142.676,76.17 209.207,120.786c12.749,8.603 20.828,22.596 21.904,37.938c5.373,79.926 5.373,161.647 -0,241.572c-1.076,15.342 -9.155,29.335 -21.904,37.938c-66.531,44.616 -137.303,85.476 -209.207,120.786c-13.825,6.74 -29.983,6.74 -43.807,0c-71.904,-35.31 -142.677,-76.17 -209.208,-120.786c-12.749,-8.603 -20.828,-22.596 -21.904,-37.938c-5.372,-79.925 -5.372,-161.646 0,-241.572c1.076,-15.342 9.155,-29.335 21.904,-37.938c66.531,-44.616 137.304,-85.476 209.208,-120.786Z"/></clipPath><g clip-path="url(#_clip1)"><g id="bg"><path d="M278.019,20.505c13.824,-6.74 29.982,-6.74 43.807,-0c71.904,35.31 142.676,76.17 209.207,120.786c12.749,8.603 20.828,22.596 21.904,37.938c5.373,79.926 5.373,161.647 -0,241.572c-1.076,15.342 -9.155,29.335 -21.904,37.938c-66.531,44.616 -137.303,85.476 -209.207,120.786c-13.825,6.74 -29.983,6.74 -43.807,0c-71.904,-35.31 -142.677,-76.17 -209.208,-120.786c-12.749,-8.603 -20.828,-22.596 -21.904,-37.938c-5.372,-79.925 -5.372,-161.646 0,-241.572c1.076,-15.342 9.155,-29.335 21.904,-37.938c66.531,-44.616 137.304,-85.476 209.208,-120.786Z" style="fill:url(#_Linear2);"/><path d="M433,451.457c2.462,-0 4.457,-1.995 4.457,-4.457l-0,-157c-0,-2.462 -1.995,-4.457 -4.457,-4.457l-412.543,0l-0,-12.217c-0,-0 98.543,-0 98.543,-0c2.462,-0 4.457,-1.996 4.457,-4.457l-0,-133.738c-0,-2.461 -1.995,-4.457 -4.457,-4.457l-89.543,0l-0,-12.217l305.543,-0c2.462,-0 4.457,-1.995 4.457,-4.457l-0,-147.084c-0,0 12.217,0 12.217,0c0,0 0,147.084 0,147.084c0,2.462 1.996,4.457 4.457,4.457l232.412,-0l0,12.217c0,0 -448.412,0 -448.412,0c-2.461,0 -4.457,1.996 -4.457,4.457l0,133.738c0,2.461 1.996,4.457 4.457,4.457l439.412,-0l0,12.217l-125.412,0c-2.461,0 -4.457,1.995 -4.457,4.457l0,157c0,2.462 1.996,4.457 4.457,4.457l125.334,-0l0,12.217c0,0 -559.086,0 -559.086,0c0,0 0,-12.217 0,-12.217c0,-0 412.621,-0 412.621,-0Z" style="fill:url(#_Linear3);"/><g><rect x="144" y="139" width="42" height="126" style="fill:#00593d;"/><rect x="73" y="139" width="42" height="126" style="fill:#005761;"/><path d="M87,149l0,68l-7.236,0l0,-68l7.236,0Zm9,0l0,68l-7.236,0l0,-68l7.236,0Zm9,34l0,34l-7.236,0l0,-34l7.236,0Z" style="fill:#006570;"/><path d="M-57,223l-0,42l126,0l-0,-42l-126,0Z" style="fill:#004645;"/><path d="M33,402l-0,42l126,-0l-0,-42l-126,-0Z" style="fill:#3c434a;"/><path d="M136.666,69.487l-0,42l126,0l-0,-42l-126,0Z" style="fill:#3c434a;"/><path d="M485,401.5l-0,42l126,-0l-0,-42l-126,-0Z" style="fill:#00593d;"/><path d="M33,356l-0,42l126,-0l-0,-42l-126,-0Z" style="fill:#005761;"/><path d="M105,371.618l-68,-0l0,-7.236l68,0l0,7.236Zm0,9l-68,-0l0,-7.236l68,0l0,7.236Zm-34,9l-34,-0l0,-7.236l34,0l0,7.236Z" style="fill:#006570;"/><path d="M473,355.5l0,42l138,-0l-0,-42l-138,-0Z" style="fill:#004645;"/><path d="M576,371.118l-68,-0l0,-7.236l68,0l0,7.236Zm0,9l-68,-0l0,-7.236l68,0l0,7.236Zm-34,9l-34,-0l0,-7.236l34,0l0,7.236Z" style="fill:#005654;"/><path d="M359,223l-0,42l126,-0l-0,-42l-126,-0Z" style="fill:#3c434a;"/><path d="M315,154l-0,65l126,0l-0,-65l-126,0Z" style="fill:#005761;"/><path d="M33,310l-0,42l126,0l-0,-42l-126,0Z" style="fill:#004645;"/><path d="M496,309.5l0,42l115,-0l0,-42l-115,-0Z" style="fill:#3c434a;"/></g><g><g><circle cx="470.999" cy="196.396" r="6.396" style="fill:#005151;"/><path d="M478.997,216.496c0,-1.513 -1.228,-2.741 -2.741,-2.741l-10.515,-0c-1.513,-0 -2.741,1.228 -2.741,2.741c-0,1.513 1.228,2.741 2.741,2.741l10.515,-0c1.513,-0 2.741,-1.228 2.741,-2.741Z" style="fill:#005151;"/><path d="M470.999,193.655l5.401,20.883l-10.803,0l5.402,-20.883Z" style="fill:#005151;"/></g><g><circle cx="452.999" cy="196.396" r="6.396" style="fill:#003a3a;"/><path d="M460.997,216.496c0,-1.513 -1.228,-2.741 -2.741,-2.741l-10.515,-0c-1.513,-0 -2.741,1.228 -2.741,2.741c0,1.513 1.228,2.741 2.741,2.741l10.515,-0c1.513,-0 2.741,-1.228 2.741,-2.741Z" style="fill:#003a3a;"/><path d="M452.999,193.655l5.401,20.883l-10.803,0l5.402,-20.883Z" style="fill:#003a3a;"/></g><g><circle cx="459.999" cy="196.396" r="6.396" style="fill:#008383;"/><path d="M467.997,216.496c0,-1.513 -1.228,-2.741 -2.741,-2.741l-10.515,-0c-1.513,-0 -2.741,1.228 -2.741,2.741c-0,1.513 1.228,2.741 2.741,2.741l10.515,-0c1.513,-0 2.741,-1.228 2.741,-2.741Z" style="fill:#008383;"/><path d="M459.999,193.655l5.401,20.883l-10.803,0l5.402,-20.883Z" style="fill:#008383;"/></g><path id="path14561" d="M509.599,337.456l0.87,0.298c2.458,0.842 3.47,1.649 3.306,2.637c-0.024,0.143 -0.106,0.355 -0.183,0.471c-0.224,0.338 -0.523,0.444 -1.439,0.509c-0.999,0.071 -1.162,0.128 -1.162,0.406c0.001,0.234 0.311,0.896 0.916,1.956c0.945,1.655 1.359,2.681 1.326,3.28c-0.027,0.494 -0.021,0.493 -2.113,0.499l-1.774,0.006l-0.211,-0.186c-0.116,-0.102 -0.442,-0.564 -0.725,-1.027c-0.601,-0.983 -0.832,-1.28 -0.996,-1.28c-0.164,0.001 -0.394,0.299 -0.989,1.285c-0.281,0.465 -0.605,0.929 -0.721,1.031l-0.209,0.187l-1.775,0.003c-1.311,0.003 -1.817,-0.017 -1.935,-0.077c-0.146,-0.075 -0.161,-0.119 -0.161,-0.495c-0.001,-0.68 0.359,-1.566 1.35,-3.322c0.867,-1.537 1.006,-1.967 0.68,-2.115c-0.091,-0.041 -0.473,-0.09 -0.849,-0.11c-1.142,-0.058 -1.482,-0.205 -1.707,-0.74c-0.213,-0.506 -0.082,-0.965 0.419,-1.469c0.461,-0.462 1.41,-0.948 2.805,-1.433l0.909,-0.317c-0.108,-0.294 -0.164,-0.609 -0.164,-0.928c-0,-1.394 1.052,-2.525 2.349,-2.525c1.296,0 2.348,1.131 2.348,2.525c0,0.32 -0.056,0.636 -0.165,0.931Z" style="fill:#51565a;"/><path id="path145611" serif:id="path14561" d="M92.18,232.394l1.805,-0.354c5.099,-1 7.66,-0.614 8.363,1.261c0.102,0.272 0.171,0.721 0.154,0.998c-0.049,0.81 -0.462,1.293 -1.984,2.322c-1.658,1.122 -1.884,1.384 -1.605,1.865c0.235,0.404 1.435,1.241 3.542,2.472c3.292,1.922 5.035,3.284 5.577,4.354c0.447,0.884 0.457,0.875 -3.161,2.978l-3.068,1.784l-0.55,-0.11c-0.303,-0.06 -1.33,-0.535 -2.284,-1.054c-2.023,-1.101 -2.721,-1.385 -3.005,-1.221c-0.282,0.164 -0.382,0.911 -0.428,3.215c-0.021,1.085 -0.119,2.213 -0.216,2.506l-0.177,0.532l-3.071,1.781c-2.268,1.316 -3.163,1.786 -3.429,1.801c-0.327,0.018 -0.396,-0.044 -0.773,-0.696c-0.682,-1.177 -0.944,-3.072 -0.983,-7.104c-0.035,-3.529 -0.226,-4.413 -0.938,-4.342c-0.199,0.02 -0.91,0.316 -1.58,0.658c-2.036,1.041 -2.772,1.126 -3.696,0.425c-0.876,-0.664 -1.108,-1.589 -0.743,-2.964c0.334,-1.261 1.494,-3.051 3.424,-5.286l1.259,-1.458c-0.483,-0.402 -0.895,-0.892 -1.214,-1.444c-1.393,-2.414 -0.702,-5.426 1.544,-6.722c2.245,-1.296 5.199,-0.389 6.593,2.025c0.32,0.554 0.538,1.158 0.644,1.778Z" style="fill:#006b77;"/></g><g><path d="M518.107,214.512c-2.131,5.392 -3.253,11.508 -3.253,17.733c-0,19.575 10.882,35.467 24.286,35.467c13.404,0 24.287,-15.892 24.287,-35.467c-0,-6.225 -1.122,-12.341 -3.254,-17.733l-42.066,0Z" style="fill:#504b32;"/><g><path d="M542.462,214.519c-9.161,-11.974 -27.916,-13.036 -41.856,-2.37c-13.941,10.665 -17.821,29.045 -8.661,41.018c3.146,-8.101 10.203,-18.124 20.279,-25.832c10.076,-7.709 21.596,-11.899 30.238,-12.816Z" style="fill:#3f4435;"/><clipPath id="_clip4"><path d="M542.462,214.519c-9.161,-11.974 -27.916,-13.036 -41.856,-2.37c-13.941,10.665 -17.821,29.045 -8.661,41.018c3.146,-8.101 10.203,-18.124 20.279,-25.832c10.076,-7.709 21.596,-11.899 30.238,-12.816Z"/></clipPath><g clip-path="url(#_clip4)"><path d="M542.462,214.519c-9.161,-11.974 -27.916,-13.036 -41.856,-2.37c-13.941,10.665 -17.821,29.045 -8.661,41.018c-4.765,-10.59 0.25,-25.985 12.81,-35.595c12.56,-9.609 28.732,-10.423 37.707,-3.053Z" style="fill:#3a412b;"/></g><path d="M542.466,214.517c0.769,-13.191 -11.636,-24.66 -27.684,-25.595c-16.048,-0.935 -29.701,9.015 -30.47,22.207c6.202,-4.815 17.444,-8.363 29.622,-7.653c12.178,0.709 22.931,5.538 28.532,11.041Z" style="fill:#3f4435;"/><clipPath id="_clip5"><path d="M542.466,214.517c0.769,-13.191 -11.636,-24.66 -27.684,-25.595c-16.048,-0.935 -29.701,9.015 -30.47,22.207c6.202,-4.815 17.444,-8.363 29.622,-7.653c12.178,0.709 22.931,5.538 28.532,11.041Z"/></clipPath><g clip-path="url(#_clip5)"><path d="M542.466,214.517c0.769,-13.191 -11.636,-24.66 -27.684,-25.595c-16.048,-0.935 -29.701,9.015 -30.47,22.207c2.317,-10.805 15.283,-18.931 30.228,-18.06c14.946,0.871 26.88,10.448 27.926,21.448Z" style="fill:#3a412b;"/></g><path d="M540.647,212.678c5.017,-8.774 -1.556,-21.984 -14.668,-29.483c-13.113,-7.499 -27.832,-6.464 -32.849,2.309c6.063,-3.978 18.331,-3.007 29.572,3.421c11.241,6.428 18.299,16.509 17.945,23.753Z" style="fill:#3f4435;"/><clipPath id="_clip6"><path d="M540.647,212.678c5.017,-8.774 -1.556,-21.984 -14.668,-29.483c-13.113,-7.499 -27.832,-6.464 -32.849,2.309c6.063,-3.978 18.331,-3.007 29.572,3.421c11.241,6.428 18.299,16.509 17.945,23.753Z"/></clipPath><g clip-path="url(#_clip6)"><path d="M540.647,212.678c5.017,-8.774 -1.556,-21.984 -14.668,-29.483c-13.113,-7.499 -27.832,-6.464 -32.849,2.309c5.274,-7.595 19.391,-8.137 32.044,-0.901c12.652,7.235 19.344,19.677 15.473,28.075Z" style="fill:#3a412b;"/></g><path d="M542.464,214.504c-6.63,-10.789 -1.686,-25.894 11.034,-33.711c12.72,-7.817 28.43,-5.405 35.06,5.384c-7.367,0.068 -17.457,2.649 -26.651,8.299c-9.194,5.65 -16.055,13.487 -19.443,20.028Z" style="fill:#3a412b;"/><clipPath id="_clip7"><path d="M542.464,214.504c-6.63,-10.789 -1.686,-25.894 11.034,-33.711c12.72,-7.817 28.43,-5.405 35.06,5.384c-7.367,0.068 -17.457,2.649 -26.651,8.299c-9.194,5.65 -16.055,13.487 -19.443,20.028Z"/></clipPath><g clip-path="url(#_clip7)"><path d="M542.464,214.504c-6.63,-10.789 -1.686,-25.894 11.034,-33.711c12.72,-7.817 28.43,-5.405 35.06,5.384c-6.893,-6.911 -20.596,-7.54 -32.057,-0.497c-11.46,7.043 -17.089,19.552 -14.037,28.824Z" style="fill:#3f4435;"/></g><path d="M542.465,214.514c-1.485,-12.576 9.488,-24.224 24.49,-25.996c15.002,-1.772 28.388,6.999 29.873,19.574c-6.788,-3.023 -17.146,-4.905 -27.989,-3.625c-10.843,1.281 -20.477,5.525 -26.374,10.047Z" style="fill:#3a412b;"/><clipPath id="_clip8"><path d="M542.465,214.514c-1.485,-12.576 9.488,-24.224 24.49,-25.996c15.002,-1.772 28.388,6.999 29.873,19.574c-6.788,-3.023 -17.146,-4.905 -27.989,-3.625c-10.843,1.281 -20.477,5.525 -26.374,10.047Z"/></clipPath><g clip-path="url(#_clip8)"><path d="M542.465,214.514c-1.485,-12.576 9.488,-24.224 24.49,-25.996c15.002,-1.772 28.388,6.999 29.873,19.574c-3.379,-9.164 -15.683,-15.474 -29.2,-13.878c-13.516,1.597 -24.012,10.601 -25.163,20.3Z" style="fill:#3f4435;"/></g><path d="M542.462,214.516c14.634,-11.616 34.386,-11.13 44.081,1.084c9.695,12.214 5.685,31.561 -8.95,43.177c0.292,-8.649 -2.604,-19.616 -9.611,-28.445c-7.007,-8.828 -17.031,-14.137 -25.52,-15.816Z" style="fill:#3f4435;"/><clipPath id="_clip9"><path d="M542.462,214.516c14.634,-11.616 34.386,-11.13 44.081,1.084c9.695,12.214 5.685,31.561 -8.95,43.177c0.292,-8.649 -2.604,-19.616 -9.611,-28.445c-7.007,-8.828 -17.031,-14.137 -25.52,-15.816Z"/></clipPath><g clip-path="url(#_clip9)"><path d="M542.462,214.516c14.634,-11.616 34.386,-11.13 44.081,1.084c9.695,12.214 5.685,31.561 -8.95,43.177c11.752,-11.02 14.375,-28.683 5.22,-40.216c-9.154,-11.534 -26.952,-12.989 -40.351,-4.045Z" style="fill:#3a412b;"/></g></g></g></g><rect x="-9.837" y="-63.198" width="645.466" height="717.184" style="fill:#3a412b;fill-opacity:0.5;"/><g id="corps---tete---plan-2" serif:id="corps + tete = plan 2"><path d="M220.707,294.188c4.866,-1.16 10.117,-2.71 15.777,-4.776c4.553,-2.797 8.18,-6.521 10.736,-11.317c-0,0 -0,-1.713 -0,-1.713c-4.547,-4.193 -8.755,-8.75 -12.576,-13.622c-29.609,-8.367 -55.424,-39.878 -55.424,-74.76c-0,-27.039 4.797,-49.735 14.31,-70.577c6.455,-14.14 24.299,-48.685 53.619,-66.219c11.659,-6.972 25.29,-10.984 39.851,-10.984c17.448,-0 33.562,5.757 46.546,15.474c4.331,-0.965 8.834,-1.474 13.454,-1.474c33.043,-0 51.546,22.949 61.32,58.381c5.186,18.797 8.912,65.779 8.912,80.399c-0,37.277 -16.209,56.93 -16.209,56.93l-2.64,3.336l-4.112,1.089c0,-0 -29.249,7.673 -46.499,9.245c0,2.678 0,7.649 0.001,7.651c2.701,8.953 8.102,15.194 16.058,18.904c3.867,1.386 7.735,2.669 11.603,3.845l3.353,-5.822l9.431,2.453c16.228,4.222 30.05,9.013 45.075,13.02l0.586,0.156l0.569,0.211c15.193,5.64 25.306,16.359 31.397,31.183l0.024,0.058c15.032,37.634 27.165,78.17 35.68,122.321l1.62,8.398l-7.146,4.7c-28.304,18.617 -56.65,28.684 -84.955,31.058l-0.676,0.056l-224.155,-5.025l-0.475,-0.047c-30.989,-3.015 -55.668,-12.403 -75.934,-26.141l-6.517,-4.419l1.015,-7.809c1.471,-11.309 3.385,-22.618 5.679,-33.928c6.765,-34.259 16.722,-71.166 24.087,-90.064c7.658,-19.649 20.525,-32.953 38.875,-36.094c7.5,-1.284 17.568,-3.81 35.261,-7.741l9.26,-2.058l3.219,5.722Zm-103.707,165.812c18.674,12.66 41.445,21.222 70,24l223,5c26.333,-2.208 52.667,-11.679 79,-29c-8.354,-43.313 -20.253,-83.081 -35,-120c-4.66,-11.34 -12.331,-19.669 -24,-24c-15,-4 -28.799,-8.785 -45,-13c-1.175,2.041 -2.405,4.02 -3.687,5.938c-7.438,-1.937 -14.875,-4.256 -22.313,-6.938c-12.185,-5.484 -20.356,-14.983 -24.008,-29l-0,-15.889c1.716,-1.861 3.363,-3.786 4.939,-5.771c1.774,-0.119 3.467,-0.233 5.069,-0.34c16.054,-1.071 46,-9 46,-9c0,-0 13.451,-17 13.451,-49c0,-14 -3.485,-59 -8.451,-77c-8,-29 -21.956,-49 -49,-49c-4.941,-0 -9.713,0.733 -14.211,2.096c-1.633,-0.593 -3.286,-1.146 -4.956,-1.657c-11.163,-9.029 -25.371,-14.439 -40.833,-14.439c-12.164,-0 -23.552,3.348 -33.291,9.173c-26.709,15.972 -42.673,47.676 -48.552,60.557c-8.796,19.27 -13.157,40.27 -13.157,65.27c0,30.672 23.741,58.406 50.093,63.399c5.126,7.139 11.15,13.589 17.907,19.186l0,10.415c-3.849,8.818 -9.958,15.376 -18,20c-10.426,3.889 -19.61,6.171 -27.654,7.508c-1.17,-1.787 -2.286,-3.623 -3.346,-5.508c-18,4 -28.246,6.556 -35.877,7.862c-14.008,2.398 -23.277,13.138 -29.123,28.138c-7.189,18.446 -16.861,54.49 -23.463,87.93c-2.236,11.023 -4.103,22.047 -5.537,33.07Z" style="fill:#fff6de;"/><g id="bras"><rect x="179.449" y="465" width="239.551" height="129.523" style="fill:#4d6750;"/><path d="M189,495c126.126,11.877 226.84,-24.747 205,55c14.506,-9.138 16.746,-30.211 9,-61c-26.292,-7.365 -145.232,-9.451 -214,-5l0,11Z" style="fill:#364938;"/><path d="M151,554l-9,-99l47,-0.088c6.227,29.026 5.396,87.289 6,139.611l-44,-40.523Zm293,-0l-44,40.523c-0.55,-46.537 0.533,-93.074 6,-139.611l47,0.088l-9,99Z" style="fill:#f7ba64;"/><clipPath id="_clip10"><path d="M151,554l-9,-99l47,-0.088c6.227,29.026 5.396,87.289 6,139.611l-44,-40.523Zm293,-0l-44,40.523c-0.55,-46.537 0.533,-93.074 6,-139.611l47,0.088l-9,99Z"/></clipPath><g clip-path="url(#_clip10)"><path d="M208,617c-29.15,-32.323 -22.829,-98.998 -32,-156l39.5,-0.611l-7.5,156.611Z" style="fill:#a06657;"/><path d="M392.5,611.523c35.5,-60.523 -8.5,-112.523 71.5,-132.523l-79,-24.088l7.5,156.611Z" style="fill:#a06657;"/></g></g><g id="corps"><path d="M121.728,431c5.771,-29.667 14.274,-59.333 24.272,-89c3.851,-16.236 15.115,-28.74 29.123,-31.138c10.877,-1.862 31.877,3.194 66.877,-9.862c8.042,-4.624 14.151,-11.182 18,-20l0,-38l74.992,-0l-0,30c3.652,14.017 11.823,23.516 24.008,29c23.667,8.534 47.333,13.389 71,14c11.669,4.331 19.34,12.66 24,24c11.394,28.526 21.089,58.752 28.761,91l-361.033,0Z" style="fill:#f7ba64;"/><path d="M257.379,238c8.132,42.646 2.421,69.869 -8.379,87c30.783,0.884 65.661,-20.41 90.758,-76.863l-82.379,-10.137Z" style="fill:#a06657;"/><path d="M385,303c16.201,4.215 30,9 45,13c11.669,4.331 19.34,12.66 24,24c14.747,36.919 26.646,76.687 35,120c-26.333,17.321 -52.667,26.792 -79,29l-223,-5c-28.555,-2.778 -51.326,-11.34 -70,-24c5.116,-39.333 19.313,-96.144 29,-121c5.846,-15 15.115,-25.74 29.123,-28.138c7.631,-1.306 17.877,-3.862 35.877,-7.862c18,32 52.187,50 87,50c34.62,-0 68,-17 87,-50Z" style="fill:#4d6750;"/><clipPath id="_clip11"><path d="M385,303c16.201,4.215 30,9 45,13c11.669,4.331 19.34,12.66 24,24c14.747,36.919 26.646,76.687 35,120c-26.333,17.321 -52.667,26.792 -79,29l-223,-5c-28.555,-2.778 -51.326,-11.34 -70,-24c5.116,-39.333 19.313,-96.144 29,-121c5.846,-15 15.115,-25.74 29.123,-28.138c7.631,-1.306 17.877,-3.862 35.877,-7.862c18,32 52.187,50 87,50c34.62,-0 68,-17 87,-50Z"/></clipPath><g clip-path="url(#_clip11)"><path d="M398.259,306.685c-19.373,35.336 -56.925,59.315 -100.033,59.315c-43.397,-0 -81.162,-24.3 -100.42,-60.025c3.884,-0.885 8.246,-1.875 13.194,-2.975c18,32 52.187,50 87,50c34.62,-0 68,-17 87,-50c4.585,1.193 8.977,2.431 13.259,3.685Z" style="fill:#485b4a;"/><path d="M401.848,308.652c-20.068,36.604 -58.968,61.441 -103.622,61.441c-44.953,-0 -84.074,-25.17 -104.022,-62.176c-0.607,-1.125 -0.653,-2.469 -0.124,-3.633c0.528,-1.164 1.57,-2.015 2.817,-2.299c3.889,-0.887 8.259,-1.879 13.215,-2.98c1.761,-0.392 3.571,0.416 4.455,1.989c17.259,30.682 50.054,47.913 83.433,47.913c33.207,0 65.229,-16.296 83.453,-47.949c0.92,-1.597 2.794,-2.383 4.577,-1.919c4.627,1.204 9.059,2.453 13.379,3.718c1.19,0.348 2.158,1.217 2.632,2.363c0.474,1.146 0.403,2.445 -0.193,3.532Zm-3.589,-1.967c-4.282,-1.254 -8.674,-2.492 -13.259,-3.685c-19,33 -52.38,50 -87,50c-34.813,-0 -69,-18 -87,-50c-4.948,1.1 -9.31,2.09 -13.194,2.975c19.258,35.725 57.023,60.025 100.42,60.025c43.108,-0 80.66,-23.979 100.033,-59.315Z" style="fill:#0e2727;"/><path d="M183,387c1.539,44.553 -2.247,103.474 6,111l223,4c3.246,-5.464 -0.607,-63.746 -4.619,-116c-2.074,40.541 -1.381,92.994 -15.381,95.675c-47.349,9.066 -176,2.325 -189,-3.675c-11,-8 -12.606,-46.189 -20,-91Z" style="fill:#364938;"/></g></g><path d="M333.546,55.694c4.331,-0.965 8.834,-1.474 13.454,-1.474c33.043,-0 51.546,22.949 61.32,58.381c5.186,18.797 8.912,65.779 8.912,80.399c-0,37.277 -16.209,56.93 -16.209,56.93l-2.64,3.336l-4.112,1.089c0,-0 -31.056,8.147 -48.039,9.371c-14.707,16.732 -34.207,29.151 -56.34,35.114l-4.16,1.121l-3.989,-1.626c-18.646,-7.599 -34.852,-19.961 -47.099,-35.575c-29.609,-8.367 -55.424,-39.878 -55.424,-74.76c-0,-27.039 4.797,-49.735 14.31,-70.577c6.455,-14.14 24.299,-48.685 53.619,-66.219c11.659,-6.972 25.29,-10.984 39.851,-10.984c17.448,-0 33.562,5.757 46.546,15.474Zm-91.453,195.705c11.145,15.522 26.539,27.791 44.474,35.101c21.373,-5.759 39.978,-18.296 53.364,-35.16c1.774,-0.119 3.467,-0.233 5.069,-0.34c16.054,-1.071 46,-9 46,-9c0,-0 13.451,-17 13.451,-49c0,-14 -3.485,-59 -8.451,-77c-8,-29 -21.956,-49 -49,-49c-4.941,-0 -9.713,0.733 -14.211,2.096c-1.633,-0.593 -3.286,-1.146 -4.956,-1.657c-11.163,-9.029 -25.371,-14.439 -40.833,-14.439c-12.164,-0 -23.552,3.348 -33.291,9.173c-26.709,15.972 -42.673,47.676 -48.552,60.557c-8.796,19.27 -13.157,40.27 -13.157,65.27c0,30.672 23.741,58.406 50.093,63.399Z" style="fill:#fff6de;"/><g id="cheveux-arrière" serif:id="cheveux arrière"><path d="M244.397,251.777c-27.255,-3.761 -52.397,-32.214 -52.397,-63.777c0,-25 4.361,-46 13.157,-65.27c5.879,-12.881 21.843,-44.585 48.552,-60.557c9.739,-5.825 21.127,-9.173 33.291,-9.173c15.462,0 29.67,5.41 40.833,14.439c1.67,0.511 3.323,1.064 4.956,1.657c4.498,-1.363 9.27,-2.096 14.211,-2.096c27.044,-0 41,20 49,49c4.966,18 8.451,63 8.451,77c0,32 -13.451,49 -13.451,49c0,-0 -29.946,7.929 -46,9c-24.434,1.629 -70,5 -100.603,0.777Z" style="fill:#060d10;"/></g><g id="visage"><g><path d="M376,181c1.25,3.456 0.994,9.672 0,14.737c-2.615,14.572 -11.819,23.96 -22.704,30.263l7.704,-42c0.082,-5.418 2.426,-8.574 7.5,-9c3.502,0.211 6.411,2.989 7.5,6Z" style="fill:#f7ba64;"/><path d="M370.658,185.588c0.956,2.643 0.76,7.396 -0,11.269c-2,11.144 -9.038,18.323 -17.362,23.143l5.891,-32.118c0.063,-4.143 1.855,-6.557 5.736,-6.882c2.677,0.162 4.902,2.286 5.735,4.588Z" style="fill:#a06657;"/></g><path d="M286.567,286.5c-37.27,-15.19 -63.567,-51.798 -63.567,-94.5c0,-47.107 32.002,-86.798 75.433,-98.5c37.27,15.19 63.567,51.798 63.567,94.5c0,47.107 -32.002,86.798 -75.433,98.5Z" style="fill:#f7ba64;"/></g><g id="cheveux-avant" serif:id="cheveux avant"><path d="M204.052,172.479c-0.034,-1.072 -0.052,-2.149 -0.052,-3.229c-0,-53.95 43.8,-97.75 97.75,-97.75c11.669,-0 22.863,2.049 33.242,5.807c-0.701,55.142 -45.685,99.693 -100.992,99.693c-10.425,-0 -20.483,-1.583 -29.948,-4.521Z" style="fill:#060d10;"/><path d="M311.96,119.417c1.272,-9.585 3.78,-18.782 7.359,-27.425c26.602,17.475 44.181,47.58 44.181,81.758c0,14.633 -3.222,28.519 -8.995,40.987c0.656,-4.569 0.995,-9.239 0.995,-13.987c0,-33.903 -17.297,-63.798 -43.54,-81.333Z" style="fill:#060d10;"/><path d="M318.68,94.43c4.88,-4.803 10.281,-8.851 16.039,-12.124c7.265,21.333 3.995,45.8 -10.868,64.898c-6.364,8.176 -14.203,14.534 -22.851,18.99c2.353,-2.267 4.574,-4.729 6.639,-7.382c14.744,-18.944 18.079,-43.171 11.041,-64.382Z" style="fill:#060d10;"/></g><g id="yeux"><path d="M303,182c0.896,-0.717 25.544,-3.455 31,-2c3.852,1.028 9.239,4.986 10,6c-12.766,-1.096 -25.169,1.103 -31,2c-3.295,0.507 -10,-0 -10,-0l0,-6Zm-71,-3c0,-0 6.614,-6.425 14,-5c5.268,1.017 14.213,4.144 18.91,5.854c1.888,0.688 3.09,1.146 3.09,1.146l1,6c0,-0 -6.293,0.336 -9,-1c-7.191,-3.548 -20,-7 -28,-7Z" style="fill:#060d10;"/><path d="M262.866,205.758c-2.446,2.125 -6.834,2.978 -11.443,1.924c-6.39,-1.463 -10.802,-6.041 -9.846,-10.217c0.203,-0.884 0.629,-1.68 1.237,-2.372l16.184,3.703l3.868,6.962Z" style="fill:#fade94;"/><path d="M308.691,208.541l22.536,-6.351c0.183,0.431 0.308,0.884 0.369,1.354c0.555,4.249 -4.271,8.387 -10.771,9.236c-5.457,0.713 -10.37,-1.119 -12.134,-4.239Z" style="fill:#fade94;"/><path d="M260.63,199.562c0.239,0.626 0.37,1.299 0.37,2c0,3.311 -2.913,6 -6.5,6c-3.587,-0 -6.5,-2.689 -6.5,-6c0,-0.701 0.131,-1.374 0.37,-2l12.26,-0Z" style="fill:#060d10;"/><path d="M235,192c16.28,7.893 26.48,0.642 28,14c-9.543,-5.263 -16.749,-7.528 -21,-6c1.71,3.242 3.242,4.182 5,6c-5.488,-2.155 -11.112,-6.428 -12,-14" style="fill:#060c0f;"/><path d="M339.212,200.19c-18.105,4.831 -27.337,-4.154 -31.212,8.728c10.723,-3.458 18.524,-4.387 22.63,-2.114c-2.32,2.884 -4.057,3.533 -6.18,5.006c6.016,-1.131 12.538,-4.323 14.762,-11.62" style="fill:#060c0f;"/><path d="M323.516,205c0.059,0.325 0.09,0.659 0.09,1c-0,3.311 -2.913,6 -6.5,6c-3.587,-0 -6.5,-2.689 -6.5,-6c-0,-0.341 0.031,-0.675 0.09,-1l12.82,-0Z" style="fill:#060d10;"/><path d="M325.033,217.127c8.789,-0.854 16.337,2.689 16.844,7.908c0.507,5.218 -6.217,10.149 -15.006,11.003c-8.789,0.854 -16.337,-2.689 -16.844,-7.908c-0.507,-5.218 6.217,-10.149 15.006,-11.003Z" style="fill:#efab5e;"/><path d="M246.015,210.858c-7.642,-1.73 -14.68,0.55 -15.707,5.087c-1.028,4.538 4.343,9.626 11.986,11.356c7.642,1.73 14.68,-0.549 15.707,-5.087c1.027,-4.538 -4.343,-9.626 -11.986,-11.356Z" style="fill:#efab5e;"/></g><g id="bouche-nez" serif:id="bouche/nez"><path d="M277,213c3.413,4.711 2.778,12.023 -2,22c1.006,2.177 3.459,3.798 7,5c0.858,-0.589 2.849,-1.435 8,-3l8,3c0.053,-1.05 -0.688,-2.78 -2,-5c8.845,5.761 0.689,12.032 -4,12c-2.03,6.244 -5.629,7.778 -10,7c-4.118,-0.88 -6.418,-3.998 -8,-8c-4.065,-1.038 -6.446,-3.012 -7,-6c-1,-7 9,-4 10,-27" style="fill:#a06657;"/><path d="M271,235c-0.806,1.599 -1.8,3 -1,5c2,5 8.581,2 12,7c1.889,-1.407 3.861,-2.759 6,-4l7,-0c0.094,-2.404 -3.019,-3.008 -9,-2c-1.722,1.217 -3.11,2.534 -4,4l-3,-3c-2,-0.907 -7,-1.125 -8,-2c-1,-0.875 -0.486,-2.782 0,-5" style="fill:#241e1f;"/><path d="M268,261c4.701,-2.593 9.444,-4.199 14.354,-2c8.219,-2.233 9.581,1.412 18.646,4l-5.998,1c-7.825,11.929 -19.635,8.574 -24.002,-1l-3,-2" style="fill:#a06657;"/><path d="M265,260c4.018,1.298 8.481,1.705 13,2l3,1l6,-1c6.817,1.039 11.682,0.711 16,-0c-0.935,2.475 -5.909,3.354 -14,3l-8,2l-4,-2c-6.925,-1.106 -11.15,-2.729 -12,-5" style="fill:#241e1f;"/></g></g><g id="main---tel---plan-1" serif:id="main + tel = plan 1"><g id="tel---light" serif:id="tel + light"><g id="lumiere-phone" serif:id="lumiere phone" opacity="0.25"><path d="M78,119l160,380.717c29.336,3.35 65.753,1.659 88,0.283l240.966,-345c-244.519,-181.835 -367.315,-102.531 -488.966,-36Z" style="fill:url(#_Linear12);"/><path d="M78,38.824l160,380.717c29.336,3.35 65.753,1.659 88,0.283l240.966,-345c-244.519,-181.835 -367.315,-102.531 -488.966,-36Z" style="fill:url(#_Linear13);"/></g><path id="phone" d="M321.543,374.197c-1.548,-13.71 -13.936,-23.585 -27.647,-22.037l-49.684,5.609c-13.711,1.548 -23.586,13.936 -22.038,27.646l12.966,114.851c1.547,13.71 13.935,23.585 27.646,22.037l49.685,-5.609c13.71,-1.547 23.585,-13.936 22.037,-27.646l-12.965,-114.851Z"/><g id="photo"><path d="M266,391c-4.51,-0 -15.4,3 -21,3c-6.071,-0 -11,-4.929 -11,-11c0,-6.071 4.929,-11 11,-11c4.51,0 15.4,-3 21,-3c6.071,0 11,4.929 11,11c0,6.071 -4.929,11 -11,11Z" style="fill:#242424;"/><circle cx="245" cy="383" r="8" style="fill:#181818;"/><circle cx="266" cy="380" r="8" style="fill:#181818;"/><circle cx="245" cy="383" r="6"/><circle cx="266" cy="380" r="6"/></g></g><g id="mains"><path d="M231.027,465.649c23.738,-3.018 45.411,-5.151 46.278,2.873c1.683,19.865 -14.238,45.839 -32.457,51.785c-9.664,3.154 -20.462,12.729 -24.506,18.153l-5.874,32.277l-35.019,-4.907l15.568,-56.348c3.162,-20.332 5.056,-41.227 27.578,-52.961c4.989,-0.986 6.791,-2.435 7.434,-1.595l0.998,10.723Z" style="fill:#f7ba64;"/><clipPath id="_clip14"><path d="M231.027,465.649c23.738,-3.018 45.411,-5.151 46.278,2.873c1.683,19.865 -14.238,45.839 -32.457,51.785c-9.664,3.154 -20.462,12.729 -24.506,18.153l-5.874,32.277l-35.019,-4.907l15.568,-56.348c3.162,-20.332 5.056,-41.227 27.578,-52.961c4.989,-0.986 6.791,-2.435 7.434,-1.595l0.998,10.723Z"/></clipPath><g clip-path="url(#_clip14)"><path d="M230.873,445.91c-9.604,11.936 -15.669,22.225 -12.512,28.222c15.36,-2.101 23.274,-8.335 34.734,-15.606c16.904,-1.765 27.936,-0.816 27.172,9.646c-4.532,26.966 -24.115,51.103 -50.048,55.224c-8.077,1.284 -13.59,4.298 -16.849,8.831c-14.246,21.914 -17.188,32.541 -18.284,41.324l69.989,-1.216l35.891,-121.642l-70.093,-4.783Z" style="fill:#efab5e;"/></g><path d="M330.145,461.339c-23.906,-1.018 -45.682,-1.328 -45.873,6.74c-0.013,19.937 18.028,44.485 36.682,48.884c9.894,2.333 21.457,10.969 25.941,16.035l8.558,31.672l34.485,-7.825l-20.236,-54.845c-4.854,-19.996 -8.493,-40.659 -31.919,-50.464c-5.054,-0.564 -6.971,-1.857 -7.542,-0.966l-0.096,10.769Z" style="fill:#f7ba64;"/><clipPath id="_clip15"><path d="M330.145,461.339c-23.906,-1.018 -45.682,-1.328 -45.873,6.74c-0.013,19.937 18.028,44.485 36.682,48.884c9.894,2.333 21.457,10.969 25.941,16.035l8.558,31.672l34.485,-7.825l-20.236,-54.845c-4.854,-19.996 -8.493,-40.659 -31.919,-50.464c-5.054,-0.564 -6.971,-1.857 -7.542,-0.966l-0.096,10.769Z"/></clipPath><g clip-path="url(#_clip15)"><path d="M328.645,441.656c10.571,11.09 17.476,20.834 14.833,27.074c-15.482,-0.805 -23.891,-6.354 -35.92,-12.64c-16.992,-0.342 -27.906,1.528 -26.268,11.89c6.776,26.491 28.313,48.901 54.5,50.835c8.157,0.603 13.903,3.144 17.53,7.388c16.032,20.643 19.855,30.986 21.683,39.647l-69.845,4.653l-45.959,-118.207l69.446,-10.64Z" style="fill:#efab5e;"/></g></g></g></g></g><defs><linearGradient id="_Linear2" x1="0" y1="0" x2="1" y2="0" gradientUnits="userSpaceOnUse" gradientTransform="matrix(4.53895,-569.13,569.13,4.53895,299.922,584.58)"><stop offset="0" style="stop-color:#000;stop-opacity:1"/><stop offset="1" style="stop-color:#0e2727;stop-opacity:1"/></linearGradient><linearGradient id="_Linear3" x1="0" y1="0" x2="1" y2="0" gradientUnits="userSpaceOnUse" gradientTransform="matrix(96,-427.55,427.55,96,277,443)"><stop offset="0" style="stop-color:#d3874f;stop-opacity:1"/><stop offset="0.55" style="stop-color:#845533;stop-opacity:1"/><stop offset="1" style="stop-color:#634127;stop-opacity:1"/></linearGradient><linearGradient id="_Linear12" x1="0" y1="0" x2="1" y2="0" gradientUnits="userSpaceOnUse" gradientTransform="matrix(50.2256,-321.463,321.463,50.2256,258,522.463)"><stop offset="0" style="stop-color:#fff;stop-opacity:0.73"/><stop offset="1" style="stop-color:#000;stop-opacity:0"/></linearGradient><linearGradient id="_Linear13" x1="0" y1="0" x2="1" y2="0" gradientUnits="userSpaceOnUse" gradientTransform="matrix(50.2256,-321.463,321.463,50.2256,258,442.287)"><stop offset="0" style="stop-color:#fff;stop-opacity:0.73"/><stop offset="1" style="stop-color:#000;stop-opacity:0"/></linearGradient></defs></svg>